<svg width="128" height="128" xmlns="http://www.w3.org/2000/svg">

 <g>
  <title>background</title>
  <rect fill="none" id="canvas_background" height="130" width="130" y="-1" x="-1"/>
 </g>
 <g>
  <title>Layer 1</title>
  <g stroke="null" id="svg_1">
   <path stroke="#000000" fill="#a5bdff" id="svg_2" d="m3.031961,94.627932c5.880962,9.048828 21.088841,8.812744 37.030053,5.110596c4.767219,15.07837 12.738787,26.261475 23.670626,26.261475c10.928816,0 18.899559,-11.17627 23.666778,-26.248048c15.924995,3.706299 31.135347,3.951904 37.033901,-5.124024c5.94583,-9.153076 -1.936683,-20.744141 -13.541111,-31.127442c11.608826,-10.388672 19.483917,-21.980225 13.541111,-31.128419c-5.44503,-8.38501 -20.034467,-9.066407 -37.065785,-5.227539c-4.771067,-15.018555 -12.731091,-26.144532 -23.634894,-26.144532s-18.863277,11.125 -23.634344,26.142579c-17.02637,-3.836426 -31.615258,-3.154297 -37.066335,5.229492c-5.94583,9.153076 1.936683,20.744141 13.541111,31.127442c-11.608826,10.388672 -19.483917,21.980225 -13.541111,31.128419zm7.142582,-3.662109c-3.598502,-5.53125 2.947353,-14.118164 12.426268,-22.397462c4.246354,3.333496 8.712323,6.442139 13.049656,9.217041c0.542579,5.147217 1.371015,10.179932 2.490256,14.948731c-14.442111,3.230957 -25.148563,2.562012 -27.96618,-1.768311zm43.250746,-43.322999c2.95285,-1.51416 6.483736,-3.126465 10.29938,-4.721924c3.776064,1.572266 7.303652,3.177002 10.315322,4.721924c2.735434,1.402344 6.170393,3.357178 9.898081,5.670166c0.254248,3.288818 0.409271,6.679199 0.409271,10.187012c0,3.506592 -0.154473,6.895508 -0.408721,10.182617c-3.643305,2.264649 -7.062047,4.219971 -9.89863,5.674561c-3.479212,1.78418 -6.921318,3.388184 -10.309825,4.856201c-3.387133,-1.468506 -6.82704,-3.072022 -10.304878,-4.856201c-2.735434,-1.402344 -6.170393,-3.357178 -9.898081,-5.670166c-0.254248,-3.288818 -0.409271,-6.679199 -0.409271,-10.187012c0,-3.506592 0.154473,-6.895508 0.408721,-10.182617c3.643305,-2.264649 7.062047,-4.219971 9.89863,-5.674561zm-8.786811,-3.827149c0.394153,-2.505615 0.838606,-4.937988 1.362769,-7.236084c2.6035,0.780518 5.198478,1.628174 7.764871,2.528076c-1.498826,0.716553 -2.995179,1.438232 -4.46377,2.190918c-1.457597,0.747314 -3.035859,1.605713 -4.66387,2.51709zm29.023577,-4.727295c2.567767,-0.909668 5.172916,-1.763916 7.789334,-2.557861c0.529386,2.313965 0.978786,4.761719 1.375413,7.286133c-1.629661,-0.912354 -3.208472,-1.771484 -4.66387,-2.518066c-1.480685,-0.759277 -2.989407,-1.487793 -4.500877,-2.210205zm18.836066,19.854981c2.080986,1.449707 4.152076,2.974121 6.185785,4.53125c-2.029861,1.564697 -4.096829,3.098877 -6.18551,4.561524c0.0503,-1.513672 0.094553,-3.027832 0.094553,-4.536133c0.000275,-1.514893 -0.043978,-3.036377 -0.094828,-4.556641zm-9.671319,24.240968c-0.409271,2.604004 -0.878736,5.118897 -1.428736,7.498535c-2.595528,-0.76709 -5.283411,-1.664795 -8.027915,-2.652344c1.703049,-0.795166 3.330236,-1.579346 4.792781,-2.329102c1.457597,-0.747314 3.035859,-1.605713 4.66387,-2.51709zm-28.736071,4.844483c-2.743405,0.986572 -5.429913,1.883301 -8.024342,2.649658c-0.549725,-2.378174 -1.018641,-4.892334 -1.427912,-7.494873c1.629661,0.912354 3.208472,1.771484 4.66387,2.518066c1.458147,0.747314 3.085059,1.531494 4.788383,2.327149zm-19.123572,-19.972169c-2.080986,-1.449707 -4.152076,-2.974121 -6.185785,-4.53125c2.029861,-1.564697 4.096829,-3.098877 6.18551,-4.561524c-0.050575,1.513672 -0.094828,3.027832 -0.094828,4.536133c0,1.514893 0.044253,3.036377 0.095102,4.556641zm28.765481,50.619142c-5.652551,0 -11.678916,-8.204834 -15.749908,-21.009766c5.449703,-1.606689 10.797431,-3.506104 15.746884,-5.479736c4.945879,1.974609 10.295807,3.877197 15.750457,5.488281c-4.071266,12.800293 -10.095982,21.001221 -15.747434,21.001221zm53.558097,-27.709962c-2.810746,4.337158 -13.520221,5.007324 -27.96783,1.773438c1.119791,-4.770752 1.949326,-9.803467 2.491905,-14.951905c4.356024,-2.786377 8.83876,-5.908447 13.096108,-9.254151c9.451979,8.208496 16.054181,16.784668 12.379816,22.432618zm0,-54.931642c3.598502,5.53125 -2.946803,14.118164 -12.426268,22.397462c-4.245804,-3.333496 -8.712323,-6.442139 -13.049656,-9.217041c-0.539555,-5.116211 -1.360845,-10.119629 -2.469641,-14.864014c12.896558,-3.126953 24.421826,-3.738037 27.945566,1.683594zm-53.558097,-27.709962c5.633311,0 11.638511,8.148682 15.709228,20.876465c-5.172916,1.512207 -10.453853,3.374268 -15.706754,5.510254c-5.253726,-2.136719 -10.536862,-3.999512 -15.711152,-5.512451c4.070717,-12.726563 10.075917,-20.874268 15.708678,-20.874268zm-53.558097,27.709962c3.429462,-5.276367 14.942086,-4.703369 27.924401,-1.599121c-1.099176,4.718506 -1.912495,9.692627 -2.448477,14.777588c-4.356024,2.786377 -8.83876,5.908447 -13.096108,9.254151c-9.451979,-8.208496 -16.054181,-16.784668 -12.379816,-22.432618z"/>
   <circle stroke="#000000" fill="#a5bdff" id="svg_3" r="8.033968" cy="63.500002" cx="63.73264"/>
  </g>
 </g>
</svg>